<svg width="141" height="21" viewBox="0 0 141 21" fill="none" xmlns="http://www.w3.org/2000/svg">
<path d="M24.672 3.152L20.28 20H15.312L12.624 8.912L9.84 20H4.872L0.6 3.152H4.992L7.416 15.416L10.416 3.152H14.928L17.808 15.416L20.256 3.152H24.672ZM39.3542 13.088C39.3542 13.472 39.3302 13.872 39.2822 14.288H29.9942C30.0582 15.12 30.3222 15.76 30.7862 16.208C31.2662 16.64 31.8502 16.856 32.5382 16.856C33.5622 16.856 34.2742 16.424 34.6742 15.56H39.0422C38.8182 16.44 38.4102 17.232 37.8182 17.936C37.2422 18.64 36.5142 19.192 35.6342 19.592C34.7542 19.992 33.7702 20.192 32.6822 20.192C31.3702 20.192 30.2022 19.912 29.1782 19.352C28.1542 18.792 27.3542 17.992 26.7782 16.952C26.2022 15.912 25.9142 14.696 25.9142 13.304C25.9142 11.912 26.1942 10.696 26.7542 9.656C27.3302 8.616 28.1302 7.816 29.1542 7.256C30.1782 6.696 31.3542 6.416 32.6822 6.416C33.9782 6.416 35.1302 6.688 36.1382 7.232C37.1462 7.776 37.9302 8.552 38.4902 9.56C39.0662 10.568 39.3542 11.744 39.3542 13.088ZM35.1542 12.008C35.1542 11.304 34.9142 10.744 34.4342 10.328C33.9542 9.912 33.3542 9.704 32.6342 9.704C31.9462 9.704 31.3622 9.904 30.8822 10.304C30.4182 10.704 30.1302 11.272 30.0182 12.008H35.1542ZM45.6233 8.504C46.0073 7.88 46.5593 7.376 47.2793 6.992C47.9993 6.608 48.8233 6.416 49.7513 6.416C50.8553 6.416 51.8553 6.696 52.7513 7.256C53.6473 7.816 54.3513 8.616 54.8633 9.656C55.3913 10.696 55.6553 11.904 55.6553 13.28C55.6553 14.656 55.3913 15.872 54.8633 16.928C54.3513 17.968 53.6473 18.776 52.7513 19.352C51.8553 19.912 50.8553 20.192 49.7513 20.192C48.8073 20.192 47.9833 20.008 47.2793 19.64C46.5753 19.256 46.0233 18.752 45.6233 18.128V20H41.5193V2.24H45.6233V8.504ZM51.4793 13.28C51.4793 12.256 51.1913 11.456 50.6153 10.88C50.0553 10.288 49.3593 9.992 48.5273 9.992C47.7113 9.992 47.0153 10.288 46.4393 10.88C45.8793 11.472 45.5993 12.28 45.5993 13.304C45.5993 14.328 45.8793 15.136 46.4393 15.728C47.0153 16.32 47.7113 16.616 48.5273 16.616C49.3433 16.616 50.0393 16.32 50.6153 15.728C51.1913 15.12 51.4793 14.304 51.4793 13.28ZM68.9903 20.168C67.7583 20.168 66.6543 19.968 65.6783 19.568C64.7023 19.168 63.9183 18.576 63.3263 17.792C62.7503 17.008 62.4463 16.064 62.4143 14.96H66.7823C66.8463 15.584 67.0623 16.064 67.4303 16.4C67.7983 16.72 68.2783 16.88 68.8703 16.88C69.4783 16.88 69.9583 16.744 70.3103 16.472C70.6623 16.184 70.8383 15.792 70.8383 15.296C70.8383 14.88 70.6943 14.536 70.4063 14.264C70.1343 13.992 69.7903 13.768 69.3743 13.592C68.9743 13.416 68.3983 13.216 67.6463 12.992C66.5583 12.656 65.6703 12.32 64.9823 11.984C64.2943 11.648 63.7023 11.152 63.2063 10.496C62.7103 9.84 62.4623 8.984 62.4623 7.928C62.4623 6.36 63.0303 5.136 64.1663 4.256C65.3023 3.36 66.7823 2.912 68.6063 2.912C70.4623 2.912 71.9583 3.36 73.0943 4.256C74.2303 5.136 74.8383 6.368 74.9183 7.952H70.4783C70.4463 7.408 70.2463 6.984 69.8783 6.68C69.5103 6.36 69.0383 6.2 68.4622 6.2C67.9663 6.2 67.5663 6.336 67.2623 6.608C66.9583 6.864 66.8063 7.24 66.8063 7.736C66.8063 8.28 67.0623 8.704 67.5742 9.008C68.0863 9.312 68.8863 9.64 69.9743 9.992C71.0623 10.36 71.9423 10.712 72.6143 11.048C73.3023 11.384 73.8943 11.872 74.3903 12.512C74.8863 13.152 75.1343 13.976 75.1343 14.984C75.1343 15.944 74.8863 16.816 74.3903 17.6C73.9103 18.384 73.2063 19.008 72.2783 19.472C71.3503 19.936 70.2543 20.168 68.9903 20.168ZM85.1239 16.52V20H83.0359C81.5479 20 80.3879 19.64 79.5559 18.92C78.7239 18.184 78.3079 16.992 78.3079 15.344V10.016H76.6759V6.608H78.3079V3.344H82.4119V6.608H85.0999V10.016H82.4119V15.392C82.4119 15.792 82.5079 16.08 82.6999 16.256C82.8919 16.432 83.2119 16.52 83.6599 16.52H85.1239ZM100.634 6.608V20H96.5299V18.176C96.1139 18.768 95.5459 19.248 94.8259 19.616C94.1219 19.968 93.3379 20.144 92.4739 20.144C91.4499 20.144 90.5459 19.92 89.7619 19.472C88.9779 19.008 88.3699 18.344 87.9379 17.48C87.5059 16.616 87.2899 15.6 87.2899 14.432V6.608H91.3699V13.88C91.3699 14.776 91.6019 15.472 92.0659 15.968C92.5299 16.464 93.1539 16.712 93.9379 16.712C94.7379 16.712 95.3699 16.464 95.8339 15.968C96.2979 15.472 96.5299 14.776 96.5299 13.88V6.608H100.634ZM102.766 13.28C102.766 11.904 103.022 10.696 103.534 9.656C104.062 8.616 104.774 7.816 105.67 7.256C106.566 6.696 107.566 6.416 108.67 6.416C109.55 6.416 110.35 6.6 111.07 6.968C111.806 7.336 112.382 7.832 112.798 8.456V2.24H116.902V20H112.798V18.08C112.414 18.72 111.862 19.232 111.142 19.616C110.438 20 109.614 20.192 108.67 20.192C107.566 20.192 106.566 19.912 105.67 19.352C104.774 18.776 104.062 17.968 103.534 16.928C103.022 15.872 102.766 14.656 102.766 13.28ZM112.798 13.304C112.798 12.28 112.51 11.472 111.934 10.88C111.374 10.288 110.686 9.992 109.87 9.992C109.054 9.992 108.358 10.288 107.782 10.88C107.222 11.456 106.942 12.256 106.942 13.28C106.942 14.304 107.222 15.12 107.782 15.728C108.358 16.32 109.054 16.616 109.87 16.616C110.686 16.616 111.374 16.32 111.934 15.728C112.51 15.136 112.798 14.328 112.798 13.304ZM121.935 5.216C121.215 5.216 120.623 5.008 120.159 4.592C119.711 4.16 119.487 3.632 119.487 3.008C119.487 2.368 119.711 1.84 120.159 1.424C120.623 0.991999 121.215 0.775999 121.935 0.775999C122.639 0.775999 123.215 0.991999 123.663 1.424C124.127 1.84 124.359 2.368 124.359 3.008C124.359 3.632 124.127 4.16 123.663 4.592C123.215 5.008 122.639 5.216 121.935 5.216ZM123.975 6.608V20H119.871V6.608H123.975ZM133.045 20.192C131.733 20.192 130.549 19.912 129.493 19.352C128.453 18.792 127.629 17.992 127.021 16.952C126.429 15.912 126.133 14.696 126.133 13.304C126.133 11.928 126.437 10.72 127.045 9.68C127.653 8.624 128.485 7.816 129.541 7.256C130.597 6.696 131.781 6.416 133.093 6.416C134.405 6.416 135.589 6.696 136.645 7.256C137.701 7.816 138.533 8.624 139.141 9.68C139.749 10.72 140.053 11.928 140.053 13.304C140.053 14.68 139.741 15.896 139.117 16.952C138.509 17.992 137.669 18.792 136.597 19.352C135.541 19.912 134.357 20.192 133.045 20.192ZM133.045 16.64C133.829 16.64 134.493 16.352 135.037 15.776C135.597 15.2 135.877 14.376 135.877 13.304C135.877 12.232 135.605 11.408 135.061 10.832C134.533 10.256 133.877 9.968 133.093 9.968C132.293 9.968 131.629 10.256 131.101 10.832C130.573 11.392 130.309 12.216 130.309 13.304C130.309 14.376 130.565 15.2 131.077 15.776C131.605 16.352 132.261 16.64 133.045 16.64Z" fill="white"/>
</svg>
