<svg width="64" height="24" viewBox="0 0 64 24" fill="none" xmlns="http://www.w3.org/2000/svg">
<rect width="64" height="24" fill="#161616"/>
<g clip-path="url(#clip0_53_34)">
<path d="M15.6735 5.99146C12.1798 5.99146 9.01156 8.05748 6.67372 11.4133C6.48295 11.6882 6.48295 12.0723 6.67372 12.3472C9.01156 15.707 12.1798 17.7731 15.6735 17.7731C19.1672 17.7731 22.3354 15.707 24.6733 12.3513C24.864 12.0763 24.864 11.6922 24.6733 11.4173C22.3354 8.05748 19.1672 5.99146 15.6735 5.99146ZM15.9241 16.0305C13.605 16.1882 11.6898 14.1221 11.8357 11.6114C11.9554 9.5413 13.5077 7.86341 15.4229 7.73403C17.742 7.57635 19.6572 9.64238 19.5113 12.1531C19.3879 14.2192 17.8355 15.8971 15.9241 16.0305ZM15.8082 14.114C14.5588 14.199 13.5264 13.0871 13.6087 11.7367C13.6723 10.6208 14.5102 9.71919 15.5426 9.64642C16.7919 9.56151 17.8243 10.6734 17.742 12.0238C17.6747 13.1437 16.8368 14.0453 15.8082 14.114Z" fill="#696C80"/>
</g>
<defs>
<clipPath id="clip0_53_34">
<rect width="18.2857" height="19.7647" fill="white" transform="translate(6.53064 2)"/>
</clipPath>
</defs>
</svg>
