<svg width="24" height="24" viewBox="0 0 24 24" fill="none" xmlns="http://www.w3.org/2000/svg">
<path fill-rule="evenodd" clip-rule="evenodd" d="M12.8832 17.9915C13.0902 17.963 13.2827 17.8693 13.4328 17.7239C13.6008 17.5499 13.6008 17.2259 13.6008 17.2259C13.6008 17.2259 13.5768 15.7043 14.2968 15.4811C15.0048 15.2591 15.9048 16.9499 16.8648 17.6003C17.5968 18.0971 18.1488 17.9903 18.1488 17.9903L20.7168 17.9555C20.7168 17.9555 22.0632 17.8715 21.4272 16.8287C21.3792 16.7459 21.0672 16.0583 19.5312 14.6483C17.9208 13.1783 18.1368 13.4159 20.0712 10.8671C21.2472 9.31434 21.7272 8.36634 21.5712 7.96314C21.4392 7.58394 20.5632 7.67754 20.5632 7.67754L17.682 7.70154C17.682 7.70154 17.466 7.67754 17.31 7.77354C17.154 7.86714 17.058 8.08194 17.058 8.08194C17.058 8.08194 16.602 9.29034 15.99 10.3103C14.6916 12.4655 14.1756 12.5843 13.9716 12.4427C13.488 12.1331 13.6116 11.1947 13.6116 10.5215C13.6116 8.43474 13.9356 7.55754 12.9876 7.33314C12.6756 7.26114 12.4428 7.21554 11.6388 7.20234C10.6068 7.19034 9.73684 7.21074 9.24364 7.44834C8.91964 7.60794 8.66764 7.96314 8.81164 7.98114C9.00364 8.00514 9.43564 8.09634 9.66364 8.40594C9.96364 8.80554 9.95164 9.69834 9.95164 9.69834C9.95164 9.69834 10.1196 12.1583 9.55564 12.4655C9.15964 12.6719 8.63164 12.2435 7.47964 10.2875C6.89164 9.29154 6.44764 8.17914 6.44764 8.17914C6.44764 8.17914 6.36364 7.97634 6.20764 7.85754C6.02404 7.72794 5.76004 7.67994 5.76004 7.67994L3.01204 7.70394C3.01204 7.70394 2.60404 7.71594 2.46124 7.89354C2.32924 8.04714 2.44924 8.37954 2.44924 8.37954C2.44924 8.37954 4.59724 13.3463 7.03324 15.8471C9.26524 18.1391 11.7984 17.9915 11.7984 17.9915H12.882H12.8832Z" fill="#696C80"/>
</svg>
